<svg width="1261" height="630" viewBox="0 0 1261 630" fill="none" xmlns="http://www.w3.org/2000/svg">
<g clip-path="url(#clip0_541_3127)">
<mask id="path-1-inside-1_541_3127" fill="white">
<path d="M1261 630.5C1261 547.702 1244.69 465.714 1213.01 389.218C1181.32 312.722 1134.88 243.217 1076.33 184.669C1017.78 126.122 948.278 79.6795 871.782 47.9939C795.286 16.3084 713.298 -3.61923e-06 630.5 0C547.702 3.61924e-06 465.714 16.3084 389.218 47.994C312.722 79.6796 243.216 126.122 184.669 184.669C126.122 243.217 79.6795 312.722 47.9939 389.218C16.3084 465.714 -7.23847e-06 547.702 0 630.5L292.255 630.5C292.255 586.081 301.004 542.097 318.003 501.059C335.001 460.022 359.916 422.734 391.325 391.325C422.734 359.916 460.022 335.001 501.059 318.003C542.097 301.004 586.081 292.255 630.5 292.255C674.919 292.255 718.903 301.004 759.941 318.003C800.978 335.001 838.266 359.916 869.675 391.325C901.084 422.734 925.999 460.022 942.997 501.059C959.996 542.097 968.745 586.081 968.745 630.5H1261Z"/>
</mask>
<path d="M1261 630.5C1261 547.702 1244.69 465.714 1213.01 389.218C1181.32 312.722 1134.88 243.217 1076.33 184.669C1017.78 126.122 948.278 79.6795 871.782 47.9939C795.286 16.3084 713.298 -3.61923e-06 630.5 0C547.702 3.61924e-06 465.714 16.3084 389.218 47.994C312.722 79.6796 243.216 126.122 184.669 184.669C126.122 243.217 79.6795 312.722 47.9939 389.218C16.3084 465.714 -7.23847e-06 547.702 0 630.5L292.255 630.5C292.255 586.081 301.004 542.097 318.003 501.059C335.001 460.022 359.916 422.734 391.325 391.325C422.734 359.916 460.022 335.001 501.059 318.003C542.097 301.004 586.081 292.255 630.5 292.255C674.919 292.255 718.903 301.004 759.941 318.003C800.978 335.001 838.266 359.916 869.675 391.325C901.084 422.734 925.999 460.022 942.997 501.059C959.996 542.097 968.745 586.081 968.745 630.5H1261Z" stroke="#9B9EA1" stroke-opacity="0.26" stroke-width="600" style="mix-blend-mode:multiply" mask="url(#path-1-inside-1_541_3127)"/>
</g>
<defs>
<clipPath id="clip0_541_3127">
<rect width="1261" height="630" fill="white"/>
</clipPath>
</defs>
</svg>
