<svg width="172" height="1122" viewBox="0 0 172 1122" fill="none" xmlns="http://www.w3.org/2000/svg">
<path d="M87.972 1121.58C145.068 1121.58 171.276 1076.88 171.276 1033.12C171.276 1015.81 167.532 999.662 160.746 985.622L126.348 985.622C135.24 995.45 139.92 1010.89 139.92 1027.74C139.92 1056.29 124.008 1085.77 87.972 1085.54C48.426 1085.54 32.046 1056.52 32.046 1027.74C32.046 1012.53 36.726 997.322 44.916 986.792L11.454 986.792C4.43398 1000.83 0.923984 1017.21 0.923985 1033.59C0.923987 1077.35 28.068 1121.34 87.972 1121.58ZM168 924.245L110.67 924.245L110.67 898.505L168 854.279L168 813.797L106.224 862.703C99.906 842.813 85.632 826.901 57.552 826.901C16.134 826.901 4.19998 860.129 4.19998 891.953L4.19998 959.345L168 959.345L168 924.245ZM35.088 924.245L35.088 890.315C35.088 875.573 41.406 862.703 58.254 862.703C74.868 862.703 81.42 875.573 81.42 890.315L81.42 924.245L35.088 924.245ZM4.19997 794.128L168 794.128L168 677.362L137.112 677.362L137.112 759.028L100.608 759.028L100.608 685.786L69.954 685.786L69.954 759.028L35.088 759.028L35.088 678.766L4.19997 678.766L4.19997 794.128ZM168 630.055L137.346 617.887L137.346 543.007L168 531.073L168 494.803L4.19996 561.493L4.19997 599.401L168 666.325L168 630.055ZM49.596 584.191C46.32 582.787 43.044 581.617 36.726 580.447C43.044 579.277 46.32 578.107 49.596 576.937L108.33 554.005L108.33 606.889L49.596 584.191ZM4.19996 510.423L35.79 510.423L35.79 460.113L168 460.113L168 425.247L35.79 425.247L35.79 374.937L4.19996 374.937L4.19996 510.423ZM4.19995 354.235L168 354.235L168 319.135L4.19995 319.135L4.19995 354.235ZM168 200.543L4.19995 136.661L4.19995 174.569L126.816 218.561L4.19995 262.319L4.19995 300.227L168 236.579L168 200.543ZM4.19994 117.721L168 117.721L168 0.955476L137.112 0.955478L137.112 82.6215L100.608 82.6215L100.608 9.37947L69.9539 9.37947L69.9539 82.6215L35.0879 82.6215L35.0879 2.35948L4.19994 2.35948L4.19994 117.721Z" fill="#9B9EA1" fill-opacity="0.26"/>
</svg>
